<?xml version="1.0" encoding="UTF-8" standalone="no"?>
<svg
   xmlns:dc="http://purl.org/dc/elements/1.1/"
   xmlns:cc="http://creativecommons.org/ns#"
   xmlns:rdf="http://www.w3.org/1999/02/22-rdf-syntax-ns#"
   xmlns:svg="http://www.w3.org/2000/svg"
   xmlns="http://www.w3.org/2000/svg"
   xmlns:sodipodi="http://sodipodi.sourceforge.net/DTD/sodipodi-0.dtd"
   xmlns:inkscape="http://www.inkscape.org/namespaces/inkscape"
   id="svg2060"
   sodipodi:docname="taxi-fare.svg"
   inkscape:export-filename="/home/joanna/gfx/vector/aiga/aiga_taxi_.png"
   viewBox="0 0 387.99 355.3"
   sodipodi:version="0.32"
   inkscape:export-xdpi="50.568184"
   inkscape:output_extension="org.inkscape.output.svg.inkscape"
   inkscape:export-ydpi="50.568184"
   inkscape:version="0.91 r13725"
   version="1.1">
  <defs
     id="defs14" />
  <sodipodi:namedview
     id="base"
     bordercolor="#666666"
     inkscape:pageshadow="2"
     inkscape:window-width="1003"
     pagecolor="#ffffff"
     inkscape:zoom="0.61399264"
     inkscape:window-x="0"
     showgrid="false"
     borderopacity="1.0"
     inkscape:current-layer="svg2060"
     inkscape:cx="1.7954038"
     inkscape:cy="390.5058"
     inkscape:window-y="0"
     inkscape:window-height="859"
     inkscape:pageopacity="0.0"
     inkscape:window-maximized="0" />
  <metadata
     id="metadata12">
    <rdf:RDF>
      <cc:Work>
        <dc:format>image/svg+xml</dc:format>
        <dc:type
           rdf:resource="http://purl.org/dc/dcmitype/StillImage" />
        <cc:license
           rdf:resource="http://creativecommons.org/publicdomain/zero/1.0/" />
        <dc:publisher>
          <cc:Agent
             rdf:about="http://openclipart.org/">
            <dc:title>Openclipart</dc:title>
          </cc:Agent>
        </dc:publisher>
        <dc:title></dc:title>
        <dc:date>2009-04-27T09:59:58</dc:date>
        <dc:description>Set of international airport symbols.\n\nSource: http://www.aiga.org/content.cfm/symbol-signs\n\nConverted to SVG by Jean-Victor Balin.</dc:description>
        <dc:source>https://openclipart.org/detail/25352/aiga-taxi-by-anonymous-25352</dc:source>
        <dc:creator>
          <cc:Agent>
            <dc:title>Anonymous</dc:title>
          </cc:Agent>
        </dc:creator>
        <dc:subject>
          <rdf:Bag>
            <rdf:li>aiga</rdf:li>
            <rdf:li>aiga no bg</rdf:li>
            <rdf:li>black and white</rdf:li>
            <rdf:li>car</rdf:li>
            <rdf:li>externalsource</rdf:li>
            <rdf:li>icon</rdf:li>
            <rdf:li>map symbol</rdf:li>
            <rdf:li>sign</rdf:li>
            <rdf:li>silhouette</rdf:li>
            <rdf:li>symbol</rdf:li>
            <rdf:li>taxi</rdf:li>
            <rdf:li>transportation</rdf:li>
          </rdf:Bag>
        </dc:subject>
      </cc:Work>
      <cc:License
         rdf:about="http://creativecommons.org/licenses/publicdomain/">
        <cc:permits
           rdf:resource="http://creativecommons.org/ns#Reproduction" />
        <cc:permits
           rdf:resource="http://creativecommons.org/ns#Distribution" />
        <cc:permits
           rdf:resource="http://creativecommons.org/ns#DerivativeWorks" />
      </cc:License>
    </rdf:RDF>
  </metadata>
  <rect
     style="opacity:0.97000002;fill:#ffffff;fill-opacity:1;stroke:none;stroke-opacity:1"
     id="rect4196"
     width="400"
     height="400"
     x="-8.1434221"
     y="-34.927921"
     inkscape:export-xdpi="460.79999"
     inkscape:export-ydpi="460.79999" />
  <g
     id="g4181"
     transform="translate(-1.7258426,13.482649)"
     inkscape:export-xdpi="460.79999"
     inkscape:export-ydpi="460.79999">
    <g
       transform="translate(-74.919465,-70.033413)"
       id="g4146">
      <path
         id="path2072"
         style="fill:#000000"
         d="m 273.00692,317.69374 -0.0356,0 -62.09181,0 0.003,19.60451 c 0,23.86687 -34.52457,24.15142 -34.52457,0 l 0,-19.60451 -18.37559,0 0,-61.39229 c 0,-16.48035 13.25424,-25.18293 20.73916,-26.13736 l 18.8955,-48.25187 c 3.55691,-9.18869 11.26355,-17.04235 25.78879,-17.04235 l 26.99695,0 0,-12.59858 c 0,-5.03895 2.7329,-7.59756 7.17904,-7.59756 l 15.38956,0 0.0356,0 -0.0415,0 0.0356,0 15.68597,0 c 4.44614,0 7.17903,2.55861 7.17903,7.59756 l 0,12.59858 26.68869,0 c 14.52406,0 22.2307,7.85366 25.78761,17.04235 l 18.89312,48.25187 c 7.4873,0.95443 20.75458,9.65701 20.75458,26.13736 l 0,61.39229 -18.37737,0 0,19.60451 c 0,24.15142 -34.51982,23.86687 -34.51982,0 l 0,-19.60451 -62.09181,0 -0.0356,0 0.0415,0 z"
         inkscape:connector-curvature="0" />
      <g
         id="g2074"
         transform="matrix(0.5928185,0,0,0.5928185,157.98235,144.67373)">
        <path
           id="path2076"
           style="fill:#ffffff"
           d="m 193.96,142.3 -0.06,0 -125.92,0 24.002,-62.984 c 3,-9 7.502,-15.5 17.998,-15.597 l 83.92,0 0.06,0 0.06,0 83.97,0 c 10.5,0.097 15,6.597 18,15.597 l 23.99,62.984 -125.96,0 -0.06,0 z"
           inkscape:connector-curvature="0" />
        <g
           id="g2078">
          <g
             id="g2080">
            <path
               id="path2082"
               style="fill:#ffffff"
               d="m 61.043,228.55 c -14.856,0 -26.901,-12.29 -26.901,-27.45 0,-15.16 12.045,-27.45 26.901,-27.45 14.856,0 26.9,12.29 26.9,27.45 0,15.16 -12.044,27.45 -26.9,27.45 z"
               inkscape:connector-curvature="0" />
          </g>
          <g
             id="g2086">
            <path
               id="path2088"
               style="fill:#ffffff"
               d="m 326.93,228.55 c 14.85,0 26.9,-12.29 26.9,-27.45 0,-15.16 -12.05,-27.45 -26.9,-27.45 -14.86,0 -26.91,12.29 -26.91,27.45 0,15.16 12.05,27.45 26.91,27.45 z"
               inkscape:connector-curvature="0" />
          </g>
        </g>
      </g>
    </g>
    <text
       transform="scale(0.99546419,1.0045565)"
       sodipodi:linespacing="125%"
       id="text4142"
       y="116.80697"
       x="18.327229"
       style="font-style:normal;font-weight:normal;font-size:130.27857971px;line-height:125%;font-family:sans-serif;letter-spacing:0px;word-spacing:0px;fill:#000000;fill-opacity:1;stroke:none;stroke-width:1px;stroke-linecap:butt;stroke-linejoin:miter;stroke-opacity:1"
       xml:space="preserve"><tspan
         y="116.80697"
         x="18.327229"
         id="tspan4144"
         sodipodi:role="line">$</tspan></text>
    <text
       xml:space="preserve"
       style="font-style:normal;font-weight:normal;font-size:130.27857971px;line-height:125%;font-family:sans-serif;letter-spacing:0px;word-spacing:0px;fill:#000000;fill-opacity:1;stroke:none;stroke-width:1px;stroke-linecap:butt;stroke-linejoin:miter;stroke-opacity:1"
       x="299.7373"
       y="118.42827"
       id="text4177"
       sodipodi:linespacing="125%"
       transform="scale(0.99546417,1.0045565)"><tspan
         sodipodi:role="line"
         id="tspan4179"
         x="299.7373"
         y="118.42827">?</tspan></text>
  </g>
</svg>
